<?xml version="1.0" encoding="UTF-8" standalone="no"?>
<svg
   viewBox="0 0 1080 350"
   version="1.1"
   id="svg61"
   sodipodi:docname="Pix 10801080.svg"
   width="1080"
   height="350"
   inkscape:version="1.1.2 (0a00cf5339, 2022-02-04)"
   xmlns:inkscape="http://www.inkscape.org/namespaces/inkscape"
   xmlns:sodipodi="http://sodipodi.sourceforge.net/DTD/sodipodi-0.dtd"
   xmlns="http://www.w3.org/2000/svg"
   xmlns:svg="http://www.w3.org/2000/svg">
  <sodipodi:namedview
     id="namedview63"
     pagecolor="#ffffff"
     bordercolor="#666666"
     borderopacity="1.0"
     inkscape:pageshadow="2"
     inkscape:pageopacity="0.0"
     inkscape:pagecheckerboard="0"
     showgrid="false"
     inkscape:zoom="0.52247334"
     inkscape:cx="657.44981"
     inkscape:cy="18.182746"
     inkscape:window-width="1920"
     inkscape:window-height="970"
     inkscape:window-x="0"
     inkscape:window-y="1107"
     inkscape:window-maximized="1"
     inkscape:current-layer="svg61" />
  <defs
     id="defs4">
    <style
       id="style2">.cls-1{fill:#939598;}.cls-2{fill:#32bcad;}</style>
  </defs>
  <g
     id="_Camada_2"
     data-name="&lt;Camada&gt;"
     transform="translate(-5.4316779,-368.64939)">
    <path
       class="cls-1"
       d="m 455.38,698.16 a 6,6 0 0 1 -6,-6 v -194.3 a 70.81,70.81 0 0 1 70.72,-70.73 l 57.39,0.09 A 70.74,70.74 0 0 1 648,497.85 v 41.36 a 70.8,70.8 0 0 1 -70.72,70.72 h -81.09 a 6,6 0 0 1 0,-12 h 81.07 A 58.81,58.81 0 0 0 636,539.21 V 497.85 A 58.75,58.75 0 0 0 577.46,439.19 L 520.1,439.1 a 58.82,58.82 0 0 0 -58.75,58.76 v 194.31 a 6,6 0 0 1 -5.97,5.99 z M 709.49,610.8 a 6,6 0 0 1 -6,-6 V 459.66 A 20.61,20.61 0 0 0 682.91,439.07 H 658 a 6,6 0 0 1 0,-12 h 24.89 a 32.58,32.58 0 0 1 32.55,32.55 v 145.2 a 6,6 0 0 1 -5.95,5.98 z"
       id="path6" />
    <path
       class="cls-2"
       d="m 704.15,410.6 -11.28,-11.29 a 7.17,7.17 0 0 1 0,-10.14 l 11.28,-11.28 a 7.18,7.18 0 0 1 10.15,0 l 11.28,11.28 a 7.17,7.17 0 0 1 0,10.14 L 714.3,410.6 a 7.18,7.18 0 0 1 -10.15,0 z"
       id="path8" />
    <path
       class="cls-1"
       d="m 781.92,609.53 h -24.68 a 6,6 0 1 1 0,-12 h 24.68 a 41.62,41.62 0 0 0 29.62,-12.27 l 57.73,-57.73 a 25.13,25.13 0 0 1 35.54,0 l 57.52,57.52 a 41.62,41.62 0 0 0 29.67,12.3 h 20 a 6,6 0 0 1 0,12 H 992 A 53.5,53.5 0 0 1 953.92,593.57 L 896.35,536 a 13.16,13.16 0 0 0 -18.62,0 L 820,593.76 a 53.51,53.51 0 0 1 -38.08,15.77 z M 887,516.31 a 25,25 0 0 1 -17.77,-7.37 L 811.5,451.21 A 41.61,41.61 0 0 0 781.92,439 h -24.68 a 6,6 0 1 1 0,-12 h 24.68 A 53.51,53.51 0 0 1 820,442.75 l 57.73,57.73 a 13.16,13.16 0 0 0 18.62,0 L 953.87,443 A 53.49,53.49 0 0 1 992,427.19 h 20 a 6,6 0 0 1 0,12 h -20 a 41.61,41.61 0 0 0 -29.62,12.26 l -57.52,57.52 A 25,25 0 0 1 887,516.31 Z"
       id="path10" />
    <path
       class="cls-2"
       d="m 308.23,640.43 a 46.12,46.12 0 0 1 -32.8,-13.58 l -47.36,-47.36 a 9,9 0 0 0 -12.44,0 L 168.1,627 a 46.12,46.12 0 0 1 -32.8,13.58 H 126 l 60,60 a 48,48 0 0 0 67.83,0 l 60.15,-60.15 z"
       id="path12" />
    <path
       class="cls-2"
       d="m 135.3,472.92 a 46.08,46.08 0 0 1 32.8,13.58 l 47.53,47.5 a 8.81,8.81 0 0 0 12.44,0 l 47.36,-47.36 a 46.08,46.08 0 0 1 32.8,-13.58 h 5.7 l -60.15,-60.15 a 48,48 0 0 0 -67.83,0 l -60,60 z"
       id="path14" />
    <path
       class="cls-2"
       d="m 363.68,522.84 -36.35,-36.35 a 6.91,6.91 0 0 1 -2.58,0.53 h -16.52 a 32.67,32.67 0 0 0 -23,9.5 l -47.35,47.36 a 22.75,22.75 0 0 1 -32.15,0 L 158.2,496.35 a 32.68,32.68 0 0 0 -22.95,-9.51 H 115 a 6.89,6.89 0 0 1 -2.44,-0.49 l -36.51,36.49 a 48,48 0 0 0 0,67.84 l 36.49,36.49 a 6.85,6.85 0 0 1 2.44,-0.5 h 20.32 a 32.67,32.67 0 0 0 22.95,-9.5 l 47.53,-47.53 c 8.59,-8.58 23.56,-8.59 32.15,0 L 285.28,617 a 32.63,32.63 0 0 0 23,9.51 h 16.52 a 7,7 0 0 1 2.59,0.52 l 36.34,-36.34 a 48,48 0 0 0 0,-67.84 z"
       id="path16" />
    <path
       class="cls-1"
       d="m 504.71,675.66 a 42.13,42.13 0 0 0 -8.89,1.35 v 11.85 a 20.61,20.61 0 0 0 6.93,1.15 c 5.93,0 8.75,-2 8.75,-7.23 0,-4.92 -2.31,-7.12 -6.79,-7.12 z m -10.89,22 v -23.43 h 1.63 l 0.17,1 a 46.26,46.26 0 0 1 9.26,-1.49 9.21,9.21 0 0 1 6.08,1.76 c 2,1.66 2.68,4.34 2.68,7.26 0,2.92 -1,5.94 -3.8,7.54 a 14.76,14.76 0 0 1 -6.89,1.52 24.82,24.82 0 0 1 -7.13,-1.08 v 6.89 z"
       id="path18" />
    <path
       class="cls-1"
       d="m 528.55,675.59 c -5.94,0 -8.59,1.86 -8.59,7.09 0,5.06 2.61,7.33 8.59,7.33 5.98,0 8.55,-1.83 8.55,-7.06 0,-5.06 -2.61,-7.36 -8.55,-7.36 z m 7.63,14.41 c -2,1.42 -4.61,1.83 -7.63,1.83 -3.02,0 -5.74,-0.44 -7.67,-1.83 -2.18,-1.53 -3.06,-4 -3.06,-7.19 0,-3.19 0.88,-5.67 3.06,-7.24 1.93,-1.39 4.58,-1.82 7.67,-1.82 3.09,0 5.66,0.43 7.63,1.82 2.21,1.57 3.06,4.11 3.06,7.2 0,3.09 -0.89,5.7 -3.06,7.23 z m 0,0 z"
       id="path20" />
    <polygon
       class="cls-1"
       points="551.02,691.37 549.23,691.37 542.17,674.23 544.37,674.23 550.24,688.62 550.38,688.62 556.76,674.23 558.59,674.23 565.14,688.62 565.28,688.62 571.01,674.23 573.15,674.23 566.09,691.37 564.29,691.37 557.68,677.15 557.54,677.15 "
       id="polygon22" />
    <path
       class="cls-1"
       d="m 586,675.55 c -5.5,0 -7.36,2.45 -7.7,6 h 15.4 c -0.16,-3.9 -2.17,-6 -7.7,-6 z m -0.06,16.29 c -3.3,0 -5.44,-0.47 -7.13,-1.9 -2,-1.73 -2.68,-4.24 -2.68,-7.12 0,-2.88 0.91,-5.67 3.19,-7.33 a 11.42,11.42 0 0 1 6.68,-1.73 12,12 0 0 1 6.86,1.66 c 2.47,1.66 3,4.58 3,7.9 h -17.68 c 0.07,3.53 1.22,6.66 7.87,6.66 a 50.75,50.75 0 0 0 8.86,-1 v 1.8 a 52.44,52.44 0 0 1 -9,1.05 z"
       id="path24" />
    <path
       class="cls-1"
       d="m 601.51,691.37 v -17.14 h 1.63 l 0.17,1 c 3.63,-0.92 5.33,-1.49 8.51,-1.49 h 0.24 v 1.9 h -0.47 c -2.68,0 -4.31,0.37 -8.08,1.35 v 14.36 z"
       id="path26" />
    <path
       class="cls-1"
       d="m 623.69,675.55 c -5.5,0 -7.36,2.45 -7.7,6 h 15.4 c -0.16,-3.9 -2.17,-6 -7.7,-6 z m -0.07,16.29 c -3.29,0 -5.43,-0.47 -7.12,-1.9 -2,-1.73 -2.68,-4.24 -2.68,-7.12 0,-2.88 0.91,-5.67 3.19,-7.33 a 11.42,11.42 0 0 1 6.68,-1.73 12,12 0 0 1 6.86,1.66 c 2.47,1.66 3,4.58 3,7.9 h -17.63 c 0.07,3.53 1.22,6.66 7.87,6.66 a 50.75,50.75 0 0 0 8.86,-1 v 1.8 a 52.44,52.44 0 0 1 -9,1.05 z"
       id="path28" />
    <path
       class="cls-1"
       d="m 655.43,676.74 a 20.55,20.55 0 0 0 -6.92,-1.15 c -5.94,0 -8.75,2 -8.75,7.23 0,4.95 2.3,7.12 6.78,7.12 a 43.9,43.9 0 0 0 8.89,-1.32 z m 0.38,14.63 -0.17,-1 a 47,47 0 0 1 -9.27,1.49 9,9 0 0 1 -6.07,-1.76 c -2,-1.67 -2.68,-4.35 -2.68,-7.26 0,-3.06 1,-5.94 3.8,-7.51 a 14.43,14.43 0 0 1 6.92,-1.55 25.8,25.8 0 0 1 7.09,1.08 V 667 h 2 v 24.37 z"
       id="path30" />
    <path
       class="cls-1"
       d="m 686.8,675.66 a 42.12,42.12 0 0 0 -8.9,1.35 v 11.81 a 19.89,19.89 0 0 0 6.93,1.19 c 5.94,0 8.75,-2 8.75,-7.23 0,-4.92 -2.3,-7.12 -6.78,-7.12 z m 5.12,14.66 a 14.76,14.76 0 0 1 -6.89,1.52 24.35,24.35 0 0 1 -7.67,-1.29 l -0.1,0.82 H 675.9 V 667 h 2 v 8.18 a 48.34,48.34 0 0 1 9.06,-1.42 9.19,9.19 0 0 1 6.08,1.76 c 2,1.66 2.68,4.34 2.68,7.26 0,2.92 -1,5.94 -3.8,7.54 z"
       id="path32" />
    <path
       class="cls-1"
       d="m 698.38,698 v -1.86 c 1,0.1 1.9,0.17 2.54,0.17 2.48,0 4,-0.72 5.37,-3.54 l 0.64,-1.35 -9,-17.14 h 2.31 L 708,689 h 0.14 l 7.29,-14.79 h 2.27 l -9.7,19.26 c -1.77,3.5 -3.67,4.65 -7.17,4.65 a 21.52,21.52 0 0 1 -2.47,-0.17 z"
       id="path34" />
    <path
       class="cls-1"
       d="m 745.25,681.59 h -6.65 v 6 h 6.68 c 4.59,0 6.32,-0.51 6.32,-3 0,-2.68 -2.38,-3 -6.35,-3 z M 744,671.85 h -5.4 V 678 h 5.46 c 4.52,0 6.32,-0.54 6.32,-3.09 0,-2.71 -2.28,-3 -6.35,-3 z m 10.32,17.89 c -2.45,1.56 -5.4,1.63 -10.8,1.63 h -10.11 v -23.25 h 9.91 c 4.65,0 7.5,0.07 9.87,1.5 a 4.9,4.9 0 0 1 2.38,4.61 c 0,2.44 -1,4.07 -3.67,5.16 v 0.13 c 3,0.68 4.92,2.21 4.92,5.5 a 5,5 0 0 1 -2.47,4.72 z"
       id="path36" />
    <path
       class="cls-1"
       d="m 777.13,684.17 c -2,-0.17 -4,-0.27 -6.18,-0.27 -3.5,0 -4.72,0.71 -4.72,2.31 0,1.6 1,2.31 3.7,2.31 a 35.39,35.39 0 0 0 7.2,-1 v -3.33 z m 1,7.2 -0.13,-1 a 41.66,41.66 0 0 1 -9.3,1.49 8.81,8.81 0 0 1 -5.19,-1.26 5.3,5.3 0 0 1 1,-8.78 c 1.8,-0.85 4.21,-0.92 6.42,-0.92 1.79,0 4.2,0.1 6.21,0.24 v -0.31 c 0,-2.68 -1.77,-3.56 -6.59,-3.56 -1.86,0 -4.14,0.1 -6.31,0.3 v -3.46 c 2.41,-0.2 5.12,-0.33 7.36,-0.33 3,0 6.08,0.23 8,1.59 1.92,1.36 2.34,3.33 2.34,5.87 v 10.15 z"
       id="path38" />
    <path
       class="cls-1"
       d="m 804.29,691.37 v -9.47 c 0,-3.12 -1.6,-4.24 -4.45,-4.24 a 32.63,32.63 0 0 0 -7,1.08 v 12.63 h -4.79 V 674.23 H 792 l 0.16,1.08 a 40.28,40.28 0 0 1 9.17,-1.55 8.45,8.45 0 0 1 5.87,1.76 c 1.36,1.22 1.87,2.92 1.87,5.36 v 10.49 z"
       id="path40" />
    <path
       class="cls-1"
       d="m 822.56,691.84 c -2.21,0 -4.62,-0.3 -6.38,-1.8 -2.11,-1.69 -2.72,-4.37 -2.72,-7.26 0,-2.71 0.88,-5.67 3.5,-7.33 2.13,-1.39 4.78,-1.7 7.53,-1.7 2,0 3.9,0.14 6,0.34 v 3.67 c -1.73,-0.17 -3.8,-0.31 -5.46,-0.31 -4.55,0 -6.69,1.43 -6.69,5.37 0,3.7 1.6,5.29 5.33,5.29 a 40.91,40.91 0 0 0 7.2,-0.88 v 3.53 a 43.7,43.7 0 0 1 -8.35,1.08 z"
       id="path42" />
    <path
       class="cls-1"
       d="m 845,677.35 c -4.55,0 -6.55,1.43 -6.55,5.33 0,3.9 2,5.57 6.55,5.57 4.55,0 6.48,-1.4 6.48,-5.3 0,-3.9 -1.93,-5.6 -6.48,-5.6 z m 8.25,12.65 c -2.1,1.43 -4.85,1.8 -8.21,1.8 -3.36,0 -6.18,-0.41 -8.25,-1.8 -2.37,-1.56 -3.22,-4.14 -3.22,-7.22 0,-3.08 0.85,-5.71 3.22,-7.27 2.07,-1.39 4.82,-1.8 8.25,-1.8 3.43,0 6.11,0.41 8.21,1.8 2.38,1.56 3.19,4.18 3.19,7.23 0,3.05 -0.85,5.7 -3.19,7.26 z m 0,0 z"
       id="path44" />
    <path
       class="cls-1"
       d="m 884.07,691.84 c -2.89,0 -6,-0.47 -8.35,-2.41 -2.78,-2.31 -3.63,-5.87 -3.63,-9.7 0,-3.43 1.08,-7.5 4.71,-9.88 2.82,-1.83 6.32,-2.2 9.85,-2.2 2.58,0 5.22,0.17 8.11,0.4 v 4.18 c -2.48,-0.21 -5.53,-0.38 -7.91,-0.38 -6.62,0 -9.43,2.52 -9.43,7.88 0,5.36 2.61,7.91 7.5,7.91 a 52.89,52.89 0 0 0 10.35,-1.4 v 4.14 a 57.31,57.31 0 0 1 -11.2,1.46 z"
       id="path46" />
    <path
       class="cls-1"
       d="m 909.33,676.81 c -4,0 -5.5,1.43 -5.81,4 h 11.54 c -0.13,-2.78 -1.76,-4 -5.73,-4 z m -0.72,15 c -2.81,0 -5.36,-0.34 -7.26,-1.9 -1.9,-1.56 -2.75,-4.24 -2.75,-7.16 0,-2.61 0.85,-5.53 3.23,-7.23 2.1,-1.49 4.78,-1.8 7.5,-1.8 2.44,0 5.33,0.27 7.43,1.73 2.75,1.94 3,4.93 3,8.46 h -16.27 c 0.1,2.61 1.49,4.31 6.31,4.31 a 60.48,60.48 0 0 0 9.13,-0.89 v 3.36 a 64,64 0 0 1 -10.32,1.12 z"
       id="path48" />
    <path
       class="cls-1"
       d="m 941.07,691.37 v -9.47 c 0,-3.12 -1.6,-4.24 -4.45,-4.24 a 32.63,32.63 0 0 0 -7,1.08 v 12.63 h -4.78 v -17.14 h 3.9 l 0.17,1.08 a 40.1,40.1 0 0 1 9.16,-1.55 8.44,8.44 0 0 1 5.87,1.76 c 1.36,1.22 1.87,2.92 1.87,5.36 v 10.49 z"
       id="path50" />
    <path
       class="cls-1"
       d="m 959.44,691.84 c -2.31,0 -4.41,-0.64 -5.56,-2.44 a 8.86,8.86 0 0 1 -1.26,-5.19 v -6.42 h -3.46 v -3.56 h 3.46 l 0.51,-5.19 h 4.24 v 5.19 h 6.75 v 3.56 h -6.75 v 5.5 a 8.07,8.07 0 0 0 0.48,3.26 c 0.51,1.15 1.62,1.59 3.12,1.59 a 22.29,22.29 0 0 0 3.42,-0.33 v 3.42 a 26.69,26.69 0 0 1 -4.95,0.61 z"
       id="path52" />
    <path
       class="cls-1"
       d="m 968.79,691.37 v -17.14 h 3.9 l 0.18,1.08 a 29.73,29.73 0 0 1 8.48,-1.55 5.23,5.23 0 0 1 0.61,0 v 4.07 c -0.54,0 -1.19,0 -1.66,0 a 26.88,26.88 0 0 0 -6.72,0.88 v 12.66 z"
       id="path54" />
    <path
       class="cls-1"
       d="m 999.36,684.17 c -2,-0.17 -4,-0.27 -6.18,-0.27 -3.5,0 -4.72,0.71 -4.72,2.31 0,1.6 1,2.31 3.7,2.31 a 35.39,35.39 0 0 0 7.2,-1 v -3.33 z m 1,7.2 -0.13,-1 a 41.66,41.66 0 0 1 -9.3,1.49 8.81,8.81 0 0 1 -5.19,-1.26 5.3,5.3 0 0 1 1,-8.78 c 1.8,-0.85 4.21,-0.92 6.42,-0.92 1.79,0 4.2,0.1 6.21,0.24 v -0.31 c 0,-2.68 -1.77,-3.56 -6.59,-3.56 -1.86,0 -4.14,0.1 -6.31,0.3 v -3.46 c 2.41,-0.2 5.12,-0.33 7.36,-0.33 3,0 6.08,0.23 8,1.59 1.92,1.36 2.34,3.33 2.34,5.87 v 10.15 z"
       id="path56" />
    <polygon
       class="cls-1"
       points="1010.29,691.37 1010.29,667 1015.08,667 1015.08,691.37 "
       id="polygon58" />
  </g>
</svg>
